<mxfile host="app.diagrams.net" modified="2024-06-08T22:37:33.467Z" agent="Mozilla/5.0 (X11; Linux x86_64) AppleWebKit/537.36 (KHTML, like Gecko) Chrome/124.0.0.0 Safari/537.36" etag="VCp0ztLTE0mTHey5QLOs" version="24.5.2" type="device">
  <diagram name="Página-1" id="qoGadFZY0UYYY0eyn02B">
    <mxGraphModel dx="1989" dy="786" grid="1" gridSize="10" guides="1" tooltips="1" connect="1" arrows="1" fold="1" page="1" pageScale="1" pageWidth="827" pageHeight="1169" math="0" shadow="0">
      <root>
        <mxCell id="0" />
        <mxCell id="1" parent="0" />
        <mxCell id="Va8XR6icL9kucACrkZHc-12" value="Data Source" style="rounded=0;whiteSpace=wrap;html=1;fillColor=#fff2cc;strokeColor=#d6b656;labelPosition=center;verticalLabelPosition=bottom;align=center;verticalAlign=top;" vertex="1" parent="1">
          <mxGeometry x="140" y="230" width="140" height="160" as="geometry" />
        </mxCell>
        <mxCell id="Va8XR6icL9kucACrkZHc-7" value="Armazenamento" style="rounded=0;whiteSpace=wrap;html=1;fillColor=#ffe6cc;strokeColor=#d79b00;labelPosition=center;verticalLabelPosition=bottom;align=center;verticalAlign=top;" vertex="1" parent="1">
          <mxGeometry x="520" y="230" width="140" height="160" as="geometry" />
        </mxCell>
        <mxCell id="Va8XR6icL9kucACrkZHc-1" value="CSV Data" style="sketch=0;pointerEvents=1;shadow=0;dashed=0;html=1;strokeColor=none;fillColor=#505050;labelPosition=center;verticalLabelPosition=bottom;verticalAlign=top;outlineConnect=0;align=center;shape=mxgraph.office.users.csv_file;" vertex="1" parent="1">
          <mxGeometry x="180.5" y="280" width="59" height="43" as="geometry" />
        </mxCell>
        <mxCell id="Va8XR6icL9kucACrkZHc-2" value="Postgres DB" style="strokeWidth=2;html=1;shape=mxgraph.flowchart.database;whiteSpace=wrap;verticalAlign=top;labelPosition=center;verticalLabelPosition=bottom;align=center;" vertex="1" parent="1">
          <mxGeometry x="560" y="280" width="60" height="60" as="geometry" />
        </mxCell>
        <mxCell id="Va8XR6icL9kucACrkZHc-11" value="" style="group" vertex="1" connectable="0" parent="1">
          <mxGeometry x="330" y="230" width="140" height="160" as="geometry" />
        </mxCell>
        <mxCell id="Va8XR6icL9kucACrkZHc-8" value="Processamento" style="rounded=0;whiteSpace=wrap;html=1;fillColor=#f5f5f5;strokeColor=#666666;fontColor=#333333;labelPosition=center;verticalLabelPosition=bottom;align=center;verticalAlign=top;" vertex="1" parent="Va8XR6icL9kucACrkZHc-11">
          <mxGeometry width="140" height="160" as="geometry" />
        </mxCell>
        <mxCell id="Va8XR6icL9kucACrkZHc-9" value="" style="shape=image;html=1;verticalAlign=top;verticalLabelPosition=bottom;labelBackgroundColor=#ffffff;imageAspect=0;aspect=fixed;image=https://cdn1.iconfinder.com/data/icons/unicons-line-vol-3/24/docker-128.png" vertex="1" parent="Va8XR6icL9kucACrkZHc-11">
          <mxGeometry x="100" y="120" width="40" height="40" as="geometry" />
        </mxCell>
        <mxCell id="Va8XR6icL9kucACrkZHc-10" value="" style="shape=image;verticalLabelPosition=bottom;labelBackgroundColor=default;verticalAlign=top;aspect=fixed;imageAspect=0;image=https://upload.wikimedia.org/wikipedia/commons/thumb/c/c3/Python-logo-notext.svg/1869px-Python-logo-notext.svg.png;" vertex="1" parent="Va8XR6icL9kucACrkZHc-11">
          <mxGeometry x="41.129999999999995" y="48.360000000000014" width="57.75" height="63.29" as="geometry" />
        </mxCell>
        <mxCell id="Va8XR6icL9kucACrkZHc-14" value="" style="group" vertex="1" connectable="0" parent="1">
          <mxGeometry x="140" y="439.6700000000001" width="520" height="150" as="geometry" />
        </mxCell>
        <mxCell id="Va8XR6icL9kucACrkZHc-5" value="Orquestração" style="rounded=0;whiteSpace=wrap;html=1;fillColor=#d5e8d4;strokeColor=#82b366;verticalAlign=top;labelPosition=center;verticalLabelPosition=bottom;align=center;" vertex="1" parent="Va8XR6icL9kucACrkZHc-14">
          <mxGeometry width="520" height="150" as="geometry" />
        </mxCell>
        <mxCell id="Va8XR6icL9kucACrkZHc-4" value="MWAA" style="sketch=0;points=[[0,0,0],[0.25,0,0],[0.5,0,0],[0.75,0,0],[1,0,0],[0,1,0],[0.25,1,0],[0.5,1,0],[0.75,1,0],[1,1,0],[0,0.25,0],[0,0.5,0],[0,0.75,0],[1,0.25,0],[1,0.5,0],[1,0.75,0]];outlineConnect=0;fontColor=#232F3E;fillColor=#E7157B;strokeColor=#ffffff;dashed=0;verticalLabelPosition=bottom;verticalAlign=top;align=center;html=1;fontSize=12;fontStyle=0;aspect=fixed;shape=mxgraph.aws4.resourceIcon;resIcon=mxgraph.aws4.managed_workflows_for_apache_airflow;" vertex="1" parent="Va8XR6icL9kucACrkZHc-14">
          <mxGeometry x="330" y="36" width="78" height="78" as="geometry" />
        </mxCell>
        <mxCell id="Va8XR6icL9kucACrkZHc-13" value="" style="shape=image;verticalLabelPosition=bottom;labelBackgroundColor=default;verticalAlign=top;aspect=fixed;imageAspect=0;image=https://upload.wikimedia.org/wikipedia/commons/d/de/AirflowLogo.png;" vertex="1" parent="Va8XR6icL9kucACrkZHc-14">
          <mxGeometry x="80" y="36.670000000000016" width="200" height="77.33" as="geometry" />
        </mxCell>
      </root>
    </mxGraphModel>
  </diagram>
</mxfile>
